<svg xmlns="http://www.w3.org/2000/svg" xmlns:xlink="http://www.w3.org/1999/xlink" width="500" zoomAndPan="magnify" viewBox="0 0 375 374.999991" height="500" preserveAspectRatio="xMidYMid meet" version="1.0"><defs><g/><clipPath id="4a5655c56a"><path d="M 41 30 L 141 30 L 141 130 L 41 130 Z M 41 30 " clip-rule="nonzero"/></clipPath><clipPath id="c38f8ac312"><path d="M 41.542969 79.820312 L 90.910156 30.457031 L 140.273438 79.820312 L 90.910156 129.183594 Z M 41.542969 79.820312 " clip-rule="nonzero"/></clipPath><clipPath id="d1a65a8922"><path d="M 41.546875 79.820312 L 90.785156 30.582031 L 140.019531 79.816406 L 90.78125 129.054688 Z M 41.546875 79.820312 " clip-rule="nonzero"/></clipPath><clipPath id="965eca8e63"><path d="M 77.195312 75.296875 L 103.597656 75.296875 L 103.597656 107.519531 L 77.195312 107.519531 Z M 77.195312 75.296875 " clip-rule="nonzero"/></clipPath><clipPath id="a2a35f02d5"><path d="M 0.238281 0.519531 L 26.597656 0.519531 L 26.597656 32.519531 L 0.238281 32.519531 Z M 0.238281 0.519531 " clip-rule="nonzero"/></clipPath><clipPath id="7efb846070"><rect x="0" width="27" y="0" height="33"/></clipPath><clipPath id="7c84e1f73d"><path d="M 88.507812 41.40625 L 93.058594 41.40625 L 93.058594 61.066406 L 88.507812 61.066406 Z M 88.507812 41.40625 " clip-rule="nonzero"/></clipPath><clipPath id="b3573e7ab7"><path d="M 0.507812 0.40625 L 5.058594 0.40625 L 5.058594 20.066406 L 0.507812 20.066406 Z M 0.507812 0.40625 " clip-rule="nonzero"/></clipPath><clipPath id="0a8ee27f7c"><rect x="0" width="6" y="0" height="21"/></clipPath><clipPath id="d809b5f29d"><path d="M 87.714844 61.839844 L 93.851562 61.839844 L 93.851562 67.097656 L 87.714844 67.097656 Z M 87.714844 61.839844 " clip-rule="nonzero"/></clipPath><clipPath id="f6665b9cf0"><path d="M 90.785156 61.839844 C 89.089844 61.839844 87.714844 63.015625 87.714844 64.46875 C 87.714844 65.917969 89.089844 67.097656 90.785156 67.097656 C 92.480469 67.097656 93.851562 65.917969 93.851562 64.46875 C 93.851562 63.015625 92.480469 61.839844 90.785156 61.839844 Z M 90.785156 61.839844 " clip-rule="nonzero"/></clipPath><clipPath id="0c61a41bee"><path d="M 0.714844 0.839844 L 6.851562 0.839844 L 6.851562 6.097656 L 0.714844 6.097656 Z M 0.714844 0.839844 " clip-rule="nonzero"/></clipPath><clipPath id="67713772da"><path d="M 3.785156 0.839844 C 2.089844 0.839844 0.714844 2.015625 0.714844 3.46875 C 0.714844 4.917969 2.089844 6.097656 3.785156 6.097656 C 5.480469 6.097656 6.851562 4.917969 6.851562 3.46875 C 6.851562 2.015625 5.480469 0.839844 3.785156 0.839844 Z M 3.785156 0.839844 " clip-rule="nonzero"/></clipPath><clipPath id="25547c3b71"><rect x="0" width="7" y="0" height="7"/></clipPath><clipPath id="2aaa5fc169"><path d="M 0.28125 68 L 166 68 L 166 121 L 0.28125 121 Z M 0.28125 68 " clip-rule="nonzero"/></clipPath><clipPath id="05f84d0108"><rect x="0" width="166" y="0" height="53"/></clipPath><clipPath id="5c3d5d6516"><rect x="0" width="170" y="0" height="160"/></clipPath></defs><g transform="matrix(1, 0, 0, 1, 101, 56)"><g clip-path="url(#5c3d5d6516)"><g clip-path="url(#4a5655c56a)"><g clip-path="url(#c38f8ac312)"><g clip-path="url(#d1a65a8922)"><path stroke-linecap="butt" transform="matrix(0.316435, -0.316435, 0.316435, 0.316435, 41.545288, 79.821168)" fill="none" stroke-linejoin="miter" d="M 0.00385931 0.00115613 L 155.606985 0.00115613 L 155.606985 155.591937 L 0.00385931 155.591937 Z M 0.00385931 0.00115613 " stroke="#e02622" stroke-width="23.463331" stroke-opacity="1" stroke-miterlimit="4"/></g></g></g><g clip-path="url(#965eca8e63)"><g transform="matrix(1, 0, 0, 1, 77, 75)"><g clip-path="url(#7efb846070)"><g clip-path="url(#a2a35f02d5)"><path fill="#e02622" d="M 26.640625 5.378906 L 26.640625 5.320312 C 26.613281 5.304688 26.589844 5.273438 26.574219 5.234375 C 25.65625 3.011719 23.773438 1.058594 21.320312 0.671875 C 19.058594 0.316406 16.851562 1.457031 15.492188 3.238281 C 14.605469 4.398438 14.03125 5.671875 13.761719 7.058594 C 13.738281 7.179688 13.714844 7.179688 13.691406 7.058594 C 13.414062 5.675781 12.859375 4.429688 12.019531 3.308594 C 10.800781 1.683594 8.855469 0.566406 6.785156 0.597656 C 3.71875 0.648438 1.390625 2.597656 0.199219 5.316406 C 0.195312 5.328125 0.195312 5.335938 0.203125 5.347656 C 0.210938 5.355469 0.222656 5.359375 0.234375 5.355469 C 0.894531 5.15625 1.570312 5.011719 2.261719 4.921875 C 3.457031 4.769531 4.691406 4.832031 5.957031 5.105469 C 6.027344 5.121094 6.070312 5.046875 6.105469 4.996094 C 6.550781 4.34375 7.050781 3.71875 7.613281 3.117188 C 7.652344 3.074219 7.691406 3.078125 7.726562 3.125 C 7.734375 3.136719 7.734375 3.160156 7.730469 3.195312 C 7.609375 3.96875 7.464844 4.730469 7.304688 5.484375 C 7.304688 5.496094 7.304688 5.503906 7.316406 5.507812 C 7.324219 5.515625 7.332031 5.515625 7.34375 5.507812 C 8.121094 4.90625 9.046875 4.40625 10.019531 4.226562 C 10.058594 4.21875 10.085938 4.234375 10.105469 4.265625 C 10.125 4.300781 10.121094 4.332031 10.097656 4.359375 L 8.871094 5.824219 C 8.828125 5.875 8.839844 5.898438 8.90625 5.898438 C 9.257812 5.894531 9.636719 5.878906 9.972656 5.929688 C 10.964844 6.085938 11.816406 6.523438 12.53125 7.242188 C 12.5625 7.273438 12.554688 7.285156 12.511719 7.277344 C 12.464844 7.265625 12.402344 7.25 12.316406 7.226562 C 11.515625 7 10.625 6.855469 9.644531 6.792969 C 8.484375 6.722656 7.402344 6.804688 6.394531 7.042969 C 4.992188 7.375 3.8125 8.050781 2.859375 9.074219 C 1.480469 10.550781 0.699219 12.617188 0.59375 14.621094 C 0.535156 15.761719 0.640625 16.894531 0.921875 18.007812 C 0.921875 18.015625 0.925781 18.019531 0.933594 18.019531 C 0.941406 18.019531 0.949219 18.015625 0.949219 18.007812 C 1.609375 16.464844 2.511719 15.082031 3.664062 13.859375 C 3.679688 13.84375 3.6875 13.824219 3.6875 13.800781 C 3.691406 13.695312 3.65625 13.566406 3.648438 13.488281 C 3.570312 12.800781 3.570312 12.109375 3.640625 11.414062 C 3.644531 11.390625 3.660156 11.371094 3.683594 11.367188 C 3.710938 11.363281 3.730469 11.371094 3.742188 11.394531 L 4.679688 13.09375 C 4.699219 13.128906 4.71875 13.128906 4.742188 13.097656 C 5.199219 12.445312 5.730469 11.859375 6.332031 11.335938 C 6.351562 11.320312 6.359375 11.300781 6.363281 11.277344 C 6.566406 9.644531 7.851562 8.449219 9.367188 7.992188 C 9.527344 7.945312 9.710938 7.902344 9.921875 7.867188 C 10.109375 7.835938 10.300781 7.808594 10.488281 7.785156 C 10.511719 7.785156 10.527344 7.792969 10.53125 7.820312 C 10.539062 7.84375 10.53125 7.859375 10.507812 7.871094 C 8.941406 8.5 7.816406 9.894531 7.46875 11.550781 C 7.273438 12.480469 7.324219 13.511719 7.507812 14.460938 C 7.53125 14.570312 7.5625 14.574219 7.609375 14.472656 C 8.304688 12.953125 9.65625 11.59375 11.296875 11.050781 C 11.316406 11.042969 11.320312 11.03125 11.308594 11.015625 L 10.289062 9.554688 C 10.273438 9.535156 10.273438 9.511719 10.28125 9.492188 C 10.308594 9.441406 10.359375 9.425781 10.433594 9.453125 C 11.144531 9.679688 11.777344 10.050781 12.320312 10.566406 C 12.355469 10.597656 12.382812 10.617188 12.40625 10.628906 C 12.445312 10.644531 12.480469 10.644531 12.507812 10.625 C 12.527344 10.609375 12.546875 10.609375 12.566406 10.625 C 12.585938 10.636719 12.59375 10.65625 12.585938 10.675781 C 12.222656 12.109375 11.941406 13.550781 11.730469 14.996094 C 11.671875 15.417969 11.621094 15.84375 11.582031 16.273438 C 11.566406 16.433594 11.515625 16.722656 11.523438 16.957031 C 11.527344 17.105469 11.472656 17.230469 11.472656 17.371094 C 11.464844 17.882812 11.402344 18.417969 11.402344 18.890625 C 11.398438 19.695312 11.398438 20.5 11.402344 21.308594 C 11.40625 21.996094 11.488281 23.042969 11.652344 24.449219 C 11.972656 27.199219 12.582031 29.878906 13.480469 32.484375 C 13.492188 32.511719 13.511719 32.527344 13.542969 32.527344 L 16.582031 32.539062 C 16.644531 32.539062 16.664062 32.511719 16.636719 32.453125 C 15.4375 29.765625 14.601562 26.949219 14.082031 24.058594 C 13.636719 21.5625 13.410156 19.128906 13.40625 16.753906 C 13.402344 14.917969 13.523438 13.09375 13.769531 11.28125 C 13.804688 11.027344 13.84375 10.78125 13.890625 10.53125 C 13.894531 10.507812 13.90625 10.503906 13.925781 10.519531 L 14.085938 10.648438 C 14.101562 10.660156 14.117188 10.660156 14.132812 10.648438 C 14.195312 10.601562 14.285156 10.527344 14.402344 10.425781 C 14.828125 10.0625 15.3125 9.773438 15.859375 9.558594 C 15.972656 9.515625 16.09375 9.496094 16.214844 9.457031 C 16.242188 9.445312 16.265625 9.453125 16.285156 9.476562 C 16.304688 9.503906 16.304688 9.527344 16.289062 9.554688 L 15.324219 10.976562 C 15.304688 11.007812 15.3125 11.03125 15.347656 11.042969 C 16.972656 11.636719 18.289062 12.984375 19.011719 14.542969 C 19.019531 14.558594 19.027344 14.5625 19.042969 14.5625 C 19.058594 14.558594 19.066406 14.550781 19.070312 14.535156 C 19.367188 13.136719 19.339844 11.667969 18.734375 10.367188 C 18.1875 9.191406 17.3125 8.359375 16.113281 7.863281 C 16.09375 7.855469 16.085938 7.839844 16.089844 7.820312 C 16.09375 7.800781 16.105469 7.789062 16.128906 7.792969 C 18.097656 7.875 19.921875 9.234375 20.195312 11.261719 C 20.199219 11.28125 20.210938 11.300781 20.226562 11.316406 C 20.84375 11.839844 21.386719 12.433594 21.855469 13.09375 C 21.875 13.121094 21.894531 13.121094 21.910156 13.089844 C 22.210938 12.585938 22.496094 12.066406 22.769531 11.53125 C 22.773438 11.523438 22.785156 11.496094 22.800781 11.460938 C 22.8125 11.421875 22.828125 11.402344 22.847656 11.394531 C 22.90625 11.375 22.941406 11.394531 22.949219 11.457031 C 23.058594 12.253906 23 12.96875 22.921875 13.765625 C 22.917969 13.800781 22.929688 13.832031 22.953125 13.855469 C 24.097656 15.058594 24.992188 16.429688 25.636719 17.96875 C 25.640625 17.984375 25.648438 17.996094 25.652344 18.007812 C 25.65625 18.019531 25.664062 18.023438 25.675781 18.023438 C 25.6875 18.023438 25.695312 18.015625 25.695312 18.003906 C 26.015625 16.75 26.105469 15.410156 25.996094 14.171875 C 25.964844 13.8125 25.890625 13.382812 25.769531 12.878906 C 25.5 11.753906 25.039062 10.714844 24.378906 9.761719 C 23.085938 7.886719 21.085938 6.953125 18.847656 6.800781 C 17.484375 6.703125 16.148438 6.84375 14.84375 7.210938 C 14.832031 7.214844 14.824219 7.210938 14.820312 7.203125 C 14.8125 7.191406 14.816406 7.183594 14.824219 7.179688 C 15.511719 6.53125 16.304688 6.125 17.203125 5.953125 C 17.652344 5.871094 18.160156 5.882812 18.632812 5.898438 C 18.671875 5.902344 18.679688 5.886719 18.65625 5.855469 C 18.308594 5.378906 17.941406 4.910156 17.5625 4.449219 C 17.527344 4.402344 17.492188 4.339844 17.453125 4.257812 C 17.445312 4.238281 17.453125 4.226562 17.472656 4.222656 C 17.5625 4.207031 17.636719 4.207031 17.699219 4.222656 C 18.597656 4.472656 19.402344 4.90625 20.113281 5.519531 C 20.128906 5.53125 20.144531 5.535156 20.160156 5.523438 C 20.175781 5.515625 20.183594 5.5 20.179688 5.484375 L 19.800781 3.148438 C 19.796875 3.121094 19.804688 3.097656 19.832031 3.085938 C 19.855469 3.074219 19.878906 3.074219 19.898438 3.09375 C 19.957031 3.152344 20.019531 3.214844 20.078125 3.285156 C 20.578125 3.867188 21.027344 4.480469 21.421875 5.125 C 21.4375 5.152344 21.464844 5.164062 21.496094 5.152344 C 23.207031 4.65625 24.898438 4.789062 26.640625 5.378906 Z M 26.640625 5.378906 " fill-opacity="1" fill-rule="nonzero"/></g></g></g></g><g clip-path="url(#7c84e1f73d)"><g transform="matrix(1, 0, 0, 1, 88, 41)"><g clip-path="url(#0a8ee27f7c)"><g clip-path="url(#b3573e7ab7)"><path fill="#e02622" d="M 0.507812 0.40625 L 5.058594 0.40625 L 5.058594 20.074219 L 0.507812 20.074219 Z M 0.507812 0.40625 " fill-opacity="1" fill-rule="nonzero"/></g></g></g></g><g clip-path="url(#d809b5f29d)"><g clip-path="url(#f6665b9cf0)"><g transform="matrix(1, 0, 0, 1, 87, 61)"><g clip-path="url(#25547c3b71)"><g clip-path="url(#0c61a41bee)"><g clip-path="url(#67713772da)"><path fill="#e02622" d="M 0.714844 0.839844 L 6.851562 0.839844 L 6.851562 6.097656 L 0.714844 6.097656 Z M 0.714844 0.839844 " fill-opacity="1" fill-rule="nonzero"/></g></g></g></g></g></g><g clip-path="url(#2aaa5fc169)"><g transform="matrix(1, 0, 0, 1, 0, 68)"><g clip-path="url(#05f84d0108)"><g fill="#000000" fill-opacity="1"><g transform="translate(0.752735, 41.508818)"><g><path d="M 17.648438 -20.308594 L 17.648438 -26.667969 L 16.8125 -26.667969 L 16.8125 -23.609375 C 15.859375 -25.398438 13.992188 -26.429688 11.527344 -26.429688 C 7.394531 -26.429688 3.972656 -22.972656 3.972656 -18.679688 C 3.972656 -9.101562 17.886719 -12.597656 17.886719 -5.761719 C 17.886719 -2.742188 15.222656 -0.4375 11.566406 -0.4375 C 7.472656 -0.4375 4.292969 -3.417969 3.972656 -7.589844 L 3.140625 -7.589844 L 3.140625 0.398438 L 3.972656 0.398438 L 3.972656 -3.972656 C 5.484375 -1.191406 8.265625 0.398438 11.527344 0.398438 C 16.414062 0.398438 20.269531 -3.339844 20.269531 -7.988281 C 20.269531 -17.726562 6.675781 -14.03125 6.675781 -20.867188 C 6.675781 -23.488281 8.824219 -25.554688 11.683594 -25.554688 C 14.625 -25.554688 16.613281 -23.570312 16.851562 -20.308594 Z M 17.648438 -20.308594 "/></g></g></g><g fill="#000000" fill-opacity="1"><g transform="translate(23.010084, 41.508818)"><g><path d="M 24.761719 -14.347656 C 24.761719 -18.164062 23.925781 -20.628906 21.742188 -23.011719 C 19.714844 -25.199219 16.613281 -26.429688 13.671875 -26.429688 C 8.863281 -26.429688 4.53125 -23.371094 3.179688 -18.917969 C 2.703125 -17.410156 2.582031 -16.175781 2.582031 -14.46875 L 2.582031 -11.683594 C 2.582031 -7.871094 3.417969 -5.40625 5.605469 -3.019531 C 7.632812 -0.835938 10.730469 0.398438 13.671875 0.398438 C 18.480469 0.398438 22.8125 -2.664062 24.164062 -7.113281 C 24.640625 -8.625 24.761719 -9.855469 24.761719 -11.566406 Z M 20.03125 -9.65625 C 20.03125 -5.84375 19.394531 -3.894531 18.164062 -2.503906 C 17.011719 -1.191406 15.539062 -0.4375 13.671875 -0.4375 C 11.644531 -0.4375 9.976562 -1.351562 8.941406 -2.78125 C 7.710938 -4.453125 7.3125 -6.238281 7.3125 -9.976562 L 7.3125 -16.375 C 7.3125 -20.191406 7.949219 -22.136719 9.179688 -23.527344 C 10.332031 -24.839844 11.804688 -25.597656 13.671875 -25.597656 C 15.699219 -25.597656 17.367188 -24.683594 18.402344 -23.25 C 19.632812 -21.582031 20.03125 -19.792969 20.03125 -16.058594 Z M 20.03125 -9.65625 "/></g></g></g><g fill="#000000" fill-opacity="1"><g transform="translate(50.990751, 41.508818)"><g><path d="M 5.046875 -26.074219 L 2.304688 -26.074219 L 2.304688 -25.238281 L 5.046875 -25.238281 L 5.046875 -0.835938 L 2.304688 -0.835938 L 2.304688 0 L 12.796875 0 L 12.796875 -0.835938 L 9.777344 -0.835938 L 9.777344 -25.238281 L 14.269531 -25.238281 L 14.269531 -26.074219 L 9.777344 -26.074219 L 9.777344 -30.644531 C 9.777344 -33.1875 10.054688 -34.21875 10.8125 -35.09375 C 11.40625 -35.769531 12.121094 -36.089844 13.15625 -36.089844 C 13.59375 -36.089844 13.992188 -36.007812 14.308594 -35.851562 C 12.917969 -35.53125 12.082031 -34.5 12.082031 -33.148438 C 12.082031 -31.597656 13.234375 -30.445312 14.863281 -30.445312 C 16.414062 -30.445312 17.566406 -31.597656 17.566406 -33.1875 C 17.566406 -35.332031 15.460938 -36.921875 12.796875 -36.921875 C 7.351562 -36.921875 5.046875 -32.910156 5.046875 -27.703125 Z M 5.046875 -26.074219 "/></g></g></g><g fill="#000000" fill-opacity="1"><g transform="translate(66.570897, 41.508818)"><g><path d="M 12.71875 0 L 12.71875 -0.835938 L 10.054688 -0.835938 L 10.054688 -36.566406 L 2.582031 -36.566406 L 2.582031 -35.730469 L 5.324219 -35.730469 L 5.324219 -0.835938 L 2.582031 -0.835938 L 2.582031 0 Z M 12.71875 0 "/></g></g></g><g fill="#000000" fill-opacity="1"><g transform="translate(79.488107, 41.508818)"><g/></g></g><g fill="#000000" fill-opacity="1"><g transform="translate(99.20176, 41.508818)"><g><path d="M 12.71875 0 L 12.71875 -0.835938 L 10.054688 -0.835938 L 10.054688 -36.566406 L 2.582031 -36.566406 L 2.582031 -35.730469 L 5.324219 -35.730469 L 5.324219 -0.835938 L 2.582031 -0.835938 L 2.582031 0 Z M 12.71875 0 "/></g></g></g><g fill="#000000" fill-opacity="1"><g transform="translate(112.118969, 41.508818)"><g><path d="M 10.054688 -32.632812 C 10.054688 -34.023438 8.902344 -35.175781 7.511719 -35.175781 C 6.121094 -35.175781 4.96875 -34.023438 4.96875 -32.632812 C 4.96875 -31.238281 6.121094 -30.085938 7.511719 -30.085938 C 8.902344 -30.085938 10.054688 -31.238281 10.054688 -32.632812 Z M 12.71875 0 L 12.71875 -0.835938 L 10.054688 -0.835938 L 10.054688 -26.074219 L 2.582031 -26.074219 L 2.582031 -25.238281 L 5.324219 -25.238281 L 5.324219 -0.835938 L 2.582031 -0.835938 L 2.582031 0 Z M 12.71875 0 "/></g></g></g><g fill="#000000" fill-opacity="1"><g transform="translate(127.222168, 41.508818)"><g><path d="M 17.648438 -20.308594 L 17.648438 -26.667969 L 16.8125 -26.667969 L 16.8125 -23.609375 C 15.859375 -25.398438 13.992188 -26.429688 11.527344 -26.429688 C 7.394531 -26.429688 3.972656 -22.972656 3.972656 -18.679688 C 3.972656 -9.101562 17.886719 -12.597656 17.886719 -5.761719 C 17.886719 -2.742188 15.222656 -0.4375 11.566406 -0.4375 C 7.472656 -0.4375 4.292969 -3.417969 3.972656 -7.589844 L 3.140625 -7.589844 L 3.140625 0.398438 L 3.972656 0.398438 L 3.972656 -3.972656 C 5.484375 -1.191406 8.265625 0.398438 11.527344 0.398438 C 16.414062 0.398438 20.269531 -3.339844 20.269531 -7.988281 C 20.269531 -17.726562 6.675781 -14.03125 6.675781 -20.867188 C 6.675781 -23.488281 8.824219 -25.554688 11.683594 -25.554688 C 14.625 -25.554688 16.613281 -23.570312 16.851562 -20.308594 Z M 17.648438 -20.308594 "/></g></g></g><g fill="#000000" fill-opacity="1"><g transform="translate(149.479518, 41.508818)"><g><path d="M 13.910156 -3.339844 C 13.792969 -1.949219 12.878906 -1.074219 11.683594 -1.074219 C 10.613281 -1.074219 9.460938 -1.828125 9.460938 -3.734375 L 9.460938 -25.238281 L 13.949219 -25.238281 L 13.949219 -26.074219 L 9.460938 -26.074219 L 9.460938 -36.566406 L 4.730469 -36.566406 L 4.730469 -26.074219 L 1.988281 -26.074219 L 1.988281 -25.238281 L 4.730469 -25.238281 L 4.730469 -6.519531 C 4.730469 -4.808594 4.886719 -3.378906 5.40625 -2.304688 C 6.320312 -0.4375 7.949219 0.398438 10.453125 0.398438 C 12.957031 0.398438 14.664062 -1.230469 14.785156 -3.339844 Z M 13.910156 -3.339844 "/></g></g></g></g></g></g></g></g></svg>